<mxfile host="Electron" modified="2024-05-27T04:59:52.848Z" agent="Mozilla/5.0 (Windows NT 10.0; Win64; x64) AppleWebKit/537.36 (KHTML, like Gecko) draw.io/24.4.8 Chrome/124.0.6367.207 Electron/30.0.6 Safari/537.36" etag="ldbNyQHJeF0OpsgDge3V" version="24.4.8" type="device">
  <diagram name="Page-1" id="MA286PJQKMPx2vG84hga">
    <mxGraphModel dx="2056" dy="809" grid="1" gridSize="10" guides="1" tooltips="1" connect="1" arrows="1" fold="1" page="1" pageScale="1" pageWidth="850" pageHeight="1100" math="0" shadow="0">
      <root>
        <mxCell id="0" />
        <mxCell id="1" parent="0" />
        <mxCell id="0KMMFu3zwFdk1hfe46Dg-2" value="" style="rounded=0;whiteSpace=wrap;html=1;dashed=1;fillColor=#d5e8d4;strokeColor=#82b366;" vertex="1" parent="1">
          <mxGeometry x="-175" y="560" width="465" height="330" as="geometry" />
        </mxCell>
        <mxCell id="0KMMFu3zwFdk1hfe46Dg-1" value="" style="rounded=0;whiteSpace=wrap;html=1;dashed=1;fillColor=#dae8fc;strokeColor=#6c8ebf;" vertex="1" parent="1">
          <mxGeometry x="-320" y="350" width="320" height="190" as="geometry" />
        </mxCell>
        <mxCell id="zXOd_ZiKP1DKvCSexmbG-24" value="" style="rounded=0;whiteSpace=wrap;html=1;dashed=1;fillColor=#f5f5f5;fontColor=#333333;strokeColor=#666666;" parent="1" vertex="1">
          <mxGeometry x="339" y="447" width="480" height="275" as="geometry" />
        </mxCell>
        <mxCell id="zXOd_ZiKP1DKvCSexmbG-11" value="" style="rounded=0;whiteSpace=wrap;html=1;dashed=1;fillColor=#fff2cc;strokeColor=#d6b656;" parent="1" vertex="1">
          <mxGeometry x="30" y="120" width="660" height="280" as="geometry" />
        </mxCell>
        <mxCell id="zXOd_ZiKP1DKvCSexmbG-3" style="edgeStyle=orthogonalEdgeStyle;rounded=0;orthogonalLoop=1;jettySize=auto;html=1;entryX=0;entryY=0.5;entryDx=0;entryDy=0;" parent="1" source="zXOd_ZiKP1DKvCSexmbG-1" target="zXOd_ZiKP1DKvCSexmbG-2" edge="1">
          <mxGeometry relative="1" as="geometry" />
        </mxCell>
        <mxCell id="zXOd_ZiKP1DKvCSexmbG-1" value="String input" style="shape=document;whiteSpace=wrap;html=1;boundedLbl=1;" parent="1" vertex="1">
          <mxGeometry x="40" y="160" width="120" height="80" as="geometry" />
        </mxCell>
        <mxCell id="zXOd_ZiKP1DKvCSexmbG-5" value="No" style="edgeStyle=orthogonalEdgeStyle;rounded=0;orthogonalLoop=1;jettySize=auto;html=1;" parent="1" source="zXOd_ZiKP1DKvCSexmbG-2" target="zXOd_ZiKP1DKvCSexmbG-4" edge="1">
          <mxGeometry y="10" relative="1" as="geometry">
            <mxPoint as="offset" />
          </mxGeometry>
        </mxCell>
        <mxCell id="zXOd_ZiKP1DKvCSexmbG-7" value="Yes" style="edgeStyle=orthogonalEdgeStyle;rounded=0;orthogonalLoop=1;jettySize=auto;html=1;" parent="1" source="zXOd_ZiKP1DKvCSexmbG-2" target="zXOd_ZiKP1DKvCSexmbG-6" edge="1">
          <mxGeometry x="-0.1111" y="20" relative="1" as="geometry">
            <mxPoint as="offset" />
          </mxGeometry>
        </mxCell>
        <mxCell id="zXOd_ZiKP1DKvCSexmbG-2" value="use RegEx" style="rhombus;whiteSpace=wrap;html=1;" parent="1" vertex="1">
          <mxGeometry x="250" y="160" width="80" height="80" as="geometry" />
        </mxCell>
        <mxCell id="zXOd_ZiKP1DKvCSexmbG-8" style="edgeStyle=orthogonalEdgeStyle;rounded=0;orthogonalLoop=1;jettySize=auto;html=1;exitX=0.5;exitY=1;exitDx=0;exitDy=0;entryX=1;entryY=0.5;entryDx=0;entryDy=0;" parent="1" source="zXOd_ZiKP1DKvCSexmbG-4" target="zXOd_ZiKP1DKvCSexmbG-6" edge="1">
          <mxGeometry relative="1" as="geometry" />
        </mxCell>
        <mxCell id="zXOd_ZiKP1DKvCSexmbG-4" value="Escape string for Regex, to avoid a normal character like a dot &quot;.&quot; to be interpreted as a single regex any character &quot;.&quot;&lt;br&gt;&quot;.&quot; becomes &quot;\.&quot;" style="whiteSpace=wrap;html=1;" parent="1" vertex="1">
          <mxGeometry x="450" y="155" width="230" height="90" as="geometry" />
        </mxCell>
        <mxCell id="zXOd_ZiKP1DKvCSexmbG-10" value="" style="edgeStyle=orthogonalEdgeStyle;rounded=0;orthogonalLoop=1;jettySize=auto;html=1;" parent="1" source="zXOd_ZiKP1DKvCSexmbG-6" edge="1">
          <mxGeometry relative="1" as="geometry">
            <mxPoint x="290" y="460" as="targetPoint" />
          </mxGeometry>
        </mxCell>
        <mxCell id="zXOd_ZiKP1DKvCSexmbG-6" value="create Regex" style="whiteSpace=wrap;html=1;" parent="1" vertex="1">
          <mxGeometry x="230" y="330" width="120" height="60" as="geometry" />
        </mxCell>
        <mxCell id="zXOd_ZiKP1DKvCSexmbG-14" value="Yes" style="edgeStyle=orthogonalEdgeStyle;rounded=0;orthogonalLoop=1;jettySize=auto;html=1;" parent="1" source="zXOd_ZiKP1DKvCSexmbG-12" target="zXOd_ZiKP1DKvCSexmbG-13" edge="1">
          <mxGeometry y="10" relative="1" as="geometry">
            <mxPoint as="offset" />
          </mxGeometry>
        </mxCell>
        <mxCell id="zXOd_ZiKP1DKvCSexmbG-26" value="No" style="edgeStyle=orthogonalEdgeStyle;rounded=0;orthogonalLoop=1;jettySize=auto;html=1;" parent="1" source="zXOd_ZiKP1DKvCSexmbG-12" target="zXOd_ZiKP1DKvCSexmbG-25" edge="1">
          <mxGeometry y="-10" relative="1" as="geometry">
            <mxPoint as="offset" />
          </mxGeometry>
        </mxCell>
        <mxCell id="zXOd_ZiKP1DKvCSexmbG-12" value="Raw HTML" style="rhombus;whiteSpace=wrap;html=1;" parent="1" vertex="1">
          <mxGeometry x="250" y="460" width="80" height="80" as="geometry" />
        </mxCell>
        <mxCell id="zXOd_ZiKP1DKvCSexmbG-16" value="Replace value only" style="edgeStyle=orthogonalEdgeStyle;rounded=0;orthogonalLoop=1;jettySize=auto;html=1;" parent="1" source="zXOd_ZiKP1DKvCSexmbG-13" target="zXOd_ZiKP1DKvCSexmbG-15" edge="1">
          <mxGeometry x="0.0769" y="10" relative="1" as="geometry">
            <mxPoint as="offset" />
          </mxGeometry>
        </mxCell>
        <mxCell id="zXOd_ZiKP1DKvCSexmbG-20" value="Search &amp;amp; Replace" style="edgeStyle=orthogonalEdgeStyle;rounded=0;orthogonalLoop=1;jettySize=auto;html=1;entryX=0;entryY=0.5;entryDx=0;entryDy=0;" parent="1" source="zXOd_ZiKP1DKvCSexmbG-13" target="zXOd_ZiKP1DKvCSexmbG-19" edge="1">
          <mxGeometry relative="1" as="geometry" />
        </mxCell>
        <mxCell id="zXOd_ZiKP1DKvCSexmbG-22" value="" style="edgeStyle=orthogonalEdgeStyle;rounded=0;orthogonalLoop=1;jettySize=auto;html=1;entryX=0;entryY=0.5;entryDx=0;entryDy=0;" parent="1" source="zXOd_ZiKP1DKvCSexmbG-13" target="zXOd_ZiKP1DKvCSexmbG-21" edge="1">
          <mxGeometry relative="1" as="geometry" />
        </mxCell>
        <mxCell id="zXOd_ZiKP1DKvCSexmbG-13" value="Finding iFrame and Inputs" style="whiteSpace=wrap;html=1;" parent="1" vertex="1">
          <mxGeometry x="390" y="470" width="120" height="60" as="geometry" />
        </mxCell>
        <mxCell id="zXOd_ZiKP1DKvCSexmbG-15" value="For each input" style="whiteSpace=wrap;html=1;" parent="1" vertex="1">
          <mxGeometry x="670" y="470" width="120" height="60" as="geometry" />
        </mxCell>
        <mxCell id="zXOd_ZiKP1DKvCSexmbG-23" value="" style="edgeStyle=orthogonalEdgeStyle;rounded=0;orthogonalLoop=1;jettySize=auto;html=1;dashed=1;" parent="1" source="zXOd_ZiKP1DKvCSexmbG-19" target="zXOd_ZiKP1DKvCSexmbG-21" edge="1">
          <mxGeometry relative="1" as="geometry" />
        </mxCell>
        <mxCell id="zXOd_ZiKP1DKvCSexmbG-19" value="For each iFrame" style="whiteSpace=wrap;html=1;" parent="1" vertex="1">
          <mxGeometry x="670" y="560" width="120" height="60" as="geometry" />
        </mxCell>
        <mxCell id="zXOd_ZiKP1DKvCSexmbG-21" value="process innerHTML of the whole page&#39;s Body" style="whiteSpace=wrap;html=1;" parent="1" vertex="1">
          <mxGeometry x="670" y="650" width="120" height="60" as="geometry" />
        </mxCell>
        <mxCell id="zXOd_ZiKP1DKvCSexmbG-30" value="" style="edgeStyle=orthogonalEdgeStyle;rounded=0;orthogonalLoop=1;jettySize=auto;html=1;entryX=1;entryY=0.5;entryDx=0;entryDy=0;" parent="1" source="zXOd_ZiKP1DKvCSexmbG-25" target="zXOd_ZiKP1DKvCSexmbG-29" edge="1">
          <mxGeometry relative="1" as="geometry" />
        </mxCell>
        <mxCell id="zXOd_ZiKP1DKvCSexmbG-31" value="" style="edgeStyle=orthogonalEdgeStyle;rounded=0;orthogonalLoop=1;jettySize=auto;html=1;" parent="1" source="zXOd_ZiKP1DKvCSexmbG-25" target="zXOd_ZiKP1DKvCSexmbG-27" edge="1">
          <mxGeometry relative="1" as="geometry" />
        </mxCell>
        <mxCell id="zXOd_ZiKP1DKvCSexmbG-25" value="Start recursively checking the element&#39;s children Nodes, start with Body" style="whiteSpace=wrap;html=1;fillColor=#fff2cc;strokeColor=#d6b656;" parent="1" vertex="1">
          <mxGeometry x="50" y="470" width="140" height="60" as="geometry" />
        </mxCell>
        <mxCell id="zXOd_ZiKP1DKvCSexmbG-33" value="" style="edgeStyle=orthogonalEdgeStyle;rounded=0;orthogonalLoop=1;jettySize=auto;html=1;" parent="1" source="zXOd_ZiKP1DKvCSexmbG-27" target="zXOd_ZiKP1DKvCSexmbG-32" edge="1">
          <mxGeometry relative="1" as="geometry" />
        </mxCell>
        <mxCell id="zXOd_ZiKP1DKvCSexmbG-34" value="" style="edgeStyle=orthogonalEdgeStyle;rounded=0;orthogonalLoop=1;jettySize=auto;html=1;" parent="1" source="zXOd_ZiKP1DKvCSexmbG-27" target="zXOd_ZiKP1DKvCSexmbG-32" edge="1">
          <mxGeometry relative="1" as="geometry" />
        </mxCell>
        <mxCell id="zXOd_ZiKP1DKvCSexmbG-36" style="edgeStyle=orthogonalEdgeStyle;rounded=0;orthogonalLoop=1;jettySize=auto;html=1;entryX=0.5;entryY=0;entryDx=0;entryDy=0;" parent="1" source="zXOd_ZiKP1DKvCSexmbG-27" target="zXOd_ZiKP1DKvCSexmbG-35" edge="1">
          <mxGeometry relative="1" as="geometry" />
        </mxCell>
        <mxCell id="zXOd_ZiKP1DKvCSexmbG-27" value="For each nodeType TEXT_NODE" style="whiteSpace=wrap;html=1;" parent="1" vertex="1">
          <mxGeometry x="60" y="590" width="120" height="60" as="geometry" />
        </mxCell>
        <mxCell id="zXOd_ZiKP1DKvCSexmbG-41" value="" style="edgeStyle=orthogonalEdgeStyle;rounded=0;orthogonalLoop=1;jettySize=auto;html=1;" parent="1" source="zXOd_ZiKP1DKvCSexmbG-29" target="zXOd_ZiKP1DKvCSexmbG-40" edge="1">
          <mxGeometry relative="1" as="geometry" />
        </mxCell>
        <mxCell id="zXOd_ZiKP1DKvCSexmbG-46" value="" style="edgeStyle=orthogonalEdgeStyle;rounded=0;orthogonalLoop=1;jettySize=auto;html=1;" parent="1" source="zXOd_ZiKP1DKvCSexmbG-29" target="zXOd_ZiKP1DKvCSexmbG-45" edge="1">
          <mxGeometry relative="1" as="geometry" />
        </mxCell>
        <mxCell id="zXOd_ZiKP1DKvCSexmbG-29" value="For each nodeType ELEMENT_NODE" style="whiteSpace=wrap;html=1;" parent="1" vertex="1">
          <mxGeometry x="-150" y="470" width="120" height="60" as="geometry" />
        </mxCell>
        <mxCell id="zXOd_ZiKP1DKvCSexmbG-38" style="edgeStyle=orthogonalEdgeStyle;rounded=0;orthogonalLoop=1;jettySize=auto;html=1;entryX=0;entryY=0.5;entryDx=0;entryDy=0;" parent="1" source="zXOd_ZiKP1DKvCSexmbG-32" target="zXOd_ZiKP1DKvCSexmbG-37" edge="1">
          <mxGeometry relative="1" as="geometry" />
        </mxCell>
        <mxCell id="zXOd_ZiKP1DKvCSexmbG-32" value="Split the text to an array of substring, based on RegEx, array length N" style="whiteSpace=wrap;html=1;" parent="1" vertex="1">
          <mxGeometry x="-10" y="722" width="120" height="60" as="geometry" />
        </mxCell>
        <mxCell id="zXOd_ZiKP1DKvCSexmbG-39" style="edgeStyle=orthogonalEdgeStyle;rounded=0;orthogonalLoop=1;jettySize=auto;html=1;entryX=1;entryY=0.5;entryDx=0;entryDy=0;" parent="1" source="zXOd_ZiKP1DKvCSexmbG-35" target="zXOd_ZiKP1DKvCSexmbG-37" edge="1">
          <mxGeometry relative="1" as="geometry" />
        </mxCell>
        <mxCell id="zXOd_ZiKP1DKvCSexmbG-35" value="Finding matches of RegEx as an array of length (N - 1)" style="whiteSpace=wrap;html=1;" parent="1" vertex="1">
          <mxGeometry x="130" y="722" width="120" height="60" as="geometry" />
        </mxCell>
        <mxCell id="zXOd_ZiKP1DKvCSexmbG-37" value="Join N parts of substrings with (N-1) replace values (matches)" style="rounded=0;whiteSpace=wrap;html=1;" parent="1" vertex="1">
          <mxGeometry x="70" y="820" width="100" height="60" as="geometry" />
        </mxCell>
        <mxCell id="zXOd_ZiKP1DKvCSexmbG-42" value="recursive func call" style="edgeStyle=orthogonalEdgeStyle;rounded=0;orthogonalLoop=1;jettySize=auto;html=1;entryX=0.5;entryY=0;entryDx=0;entryDy=0;dashed=1;exitX=0.5;exitY=0;exitDx=0;exitDy=0;" parent="1" source="zXOd_ZiKP1DKvCSexmbG-40" target="zXOd_ZiKP1DKvCSexmbG-25" edge="1">
          <mxGeometry x="0.6585" y="10" relative="1" as="geometry">
            <mxPoint as="offset" />
          </mxGeometry>
        </mxCell>
        <mxCell id="zXOd_ZiKP1DKvCSexmbG-40" value="iframe - geting iframe&#39;s document Body" style="whiteSpace=wrap;html=1;" parent="1" vertex="1">
          <mxGeometry x="-310" y="470" width="120" height="60" as="geometry" />
        </mxCell>
        <mxCell id="zXOd_ZiKP1DKvCSexmbG-43" value="For each input" style="whiteSpace=wrap;html=1;" parent="1" vertex="1">
          <mxGeometry x="-150" y="600" width="120" height="60" as="geometry" />
        </mxCell>
        <mxCell id="zXOd_ZiKP1DKvCSexmbG-44" value="Replace value only" style="edgeStyle=orthogonalEdgeStyle;rounded=0;orthogonalLoop=1;jettySize=auto;html=1;exitX=0.5;exitY=1;exitDx=0;exitDy=0;entryX=0.5;entryY=0;entryDx=0;entryDy=0;" parent="1" source="zXOd_ZiKP1DKvCSexmbG-29" target="zXOd_ZiKP1DKvCSexmbG-43" edge="1">
          <mxGeometry x="0.4286" y="10" relative="1" as="geometry">
            <mxPoint x="-360" y="560" as="sourcePoint" />
            <mxPoint x="-200" y="560" as="targetPoint" />
            <mxPoint as="offset" />
          </mxGeometry>
        </mxCell>
        <mxCell id="zXOd_ZiKP1DKvCSexmbG-47" style="edgeStyle=orthogonalEdgeStyle;rounded=0;orthogonalLoop=1;jettySize=auto;html=1;entryX=0.5;entryY=0;entryDx=0;entryDy=0;dashed=1;exitX=0.75;exitY=1;exitDx=0;exitDy=0;" parent="1" source="zXOd_ZiKP1DKvCSexmbG-45" target="zXOd_ZiKP1DKvCSexmbG-25" edge="1">
          <mxGeometry relative="1" as="geometry">
            <Array as="points">
              <mxPoint x="-60" y="450" />
              <mxPoint x="120" y="450" />
            </Array>
          </mxGeometry>
        </mxCell>
        <mxCell id="zXOd_ZiKP1DKvCSexmbG-45" value="Other/Else" style="whiteSpace=wrap;html=1;" parent="1" vertex="1">
          <mxGeometry x="-150" y="360" width="120" height="60" as="geometry" />
        </mxCell>
        <mxCell id="zXOd_ZiKP1DKvCSexmbG-48" value="Processing Search and Replace RegEx" style="text;html=1;align=center;verticalAlign=middle;resizable=0;points=[];autosize=1;strokeColor=none;fillColor=none;fontStyle=1;fontSize=14;" parent="1" vertex="1">
          <mxGeometry x="160" y="120" width="270" height="30" as="geometry" />
        </mxCell>
        <mxCell id="zXOd_ZiKP1DKvCSexmbG-49" value="Process Raw innerHTML as a string, dangerous" style="text;html=1;align=center;verticalAlign=middle;resizable=0;points=[];autosize=1;strokeColor=none;fillColor=none;fontStyle=1;fontSize=14;" parent="1" vertex="1">
          <mxGeometry x="344" y="692" width="320" height="30" as="geometry" />
        </mxCell>
        <mxCell id="zXOd_ZiKP1DKvCSexmbG-50" value="Process DOM nodes recursively&lt;br style=&quot;font-size: 14px;&quot;&gt;slow, but accurate" style="text;html=1;align=center;verticalAlign=middle;resizable=0;points=[];autosize=1;strokeColor=none;fillColor=none;fontStyle=1;fontSize=14;" parent="1" vertex="1">
          <mxGeometry x="-310" y="710" width="220" height="50" as="geometry" />
        </mxCell>
      </root>
    </mxGraphModel>
  </diagram>
</mxfile>
